<?xml version="1.0" encoding="UTF-8"?>
<svg version="1.1" xmlns="http://www.w3.org/2000/svg" width="125" height="100">
<path d="M0 0 C1.15338867 0.04157227 1.15338867 0.04157227 2.33007812 0.08398438 C8.14258152 0.43224407 12.12889548 2.07076517 17.1875 4.9375 C17.1875 5.5975 17.1875 6.2575 17.1875 6.9375 C17.8475 6.9375 18.5075 6.9375 19.1875 6.9375 C23.1875 11.40808824 23.1875 11.40808824 23.1875 13.9375 C23.8475 13.9375 24.5075 13.9375 25.1875 13.9375 C25.496875 14.741875 25.80625 15.54625 26.125 16.375 C26.95085345 18.82830405 26.95085345 18.82830405 28.1875 19.9375 C28.52083333 22.27083333 28.85416667 24.60416667 29.1875 26.9375 C29.5175 27.2675 29.8475 27.5975 30.1875 27.9375 C30.71957001 34.21592607 30.00684443 36.77015165 26.1875 41.9375 C25.836875 43.030625 25.48625 44.12375 25.125 45.25 C24.6609375 46.5803125 24.6609375 46.5803125 24.1875 47.9375 C22.7025 48.4325 22.7025 48.4325 21.1875 48.9375 C20.630625 50.0821875 20.630625 50.0821875 20.0625 51.25 C17.31517188 55.18783698 13.73533491 56.61536236 9.1875 57.9375 C6.125 57.6875 6.125 57.6875 4.1875 56.9375 C3.8575 57.9275 3.5275 58.9175 3.1875 59.9375 C1.8675 59.9375 0.5475 59.9375 -0.8125 59.9375 C-0.8125 61.030625 -0.8125 62.12375 -0.8125 63.25 C-0.8125 68.8125 -0.8125 74.375 -0.8125 79.9375 C-2.4625 79.9375 -4.1125 79.9375 -5.8125 79.9375 C-5.8125 76.9675 -5.8125 73.9975 -5.8125 70.9375 C-6.4725 70.9375 -7.1325 70.9375 -7.8125 70.9375 C-7.8125 73.9075 -7.8125 76.8775 -7.8125 79.9375 C-9.4625 79.9375 -11.1125 79.9375 -12.8125 79.9375 C-12.8125 72.27083333 -12.8125 64.60416667 -12.8125 56.9375 C-13.451875 56.69 -14.09125 56.4425 -14.75 56.1875 C-16.8125 54.9375 -16.8125 54.9375 -17.5625 52.9375 C-17.8125 50.9375 -17.8125 50.9375 -17.8125 48.9375 C-19.1325 48.9375 -20.4525 48.9375 -21.8125 48.9375 C-26.95351327 44.22224352 -29.23512024 38.86696993 -29.8125 32 C-29.94483422 28.53036228 -29.91302373 26.23907118 -28.8125 22.9375 C-28.1525 22.9375 -27.4925 22.9375 -26.8125 22.9375 C-26.8125 23.5975 -26.8125 24.2575 -26.8125 24.9375 C-25.8225 24.9375 -24.8325 24.9375 -23.8125 24.9375 C-24.77407174 21.37968458 -25.47137911 20.15733346 -28.625 18.125 C-31.65788973 16.99509991 -33.62328211 16.65609842 -36.8125 16.9375 C-37.1425 18.2575 -37.4725 19.5775 -37.8125 20.9375 C-37.1525 20.9375 -36.4925 20.9375 -35.8125 20.9375 C-36.1425 22.2575 -36.4725 23.5775 -36.8125 24.9375 C-38.1325 24.9375 -39.4525 24.9375 -40.8125 24.9375 C-40.8125 25.5975 -40.8125 26.2575 -40.8125 26.9375 C-42.75 26.625 -42.75 26.625 -44.8125 25.9375 C-45.1425 24.9475 -45.4725 23.9575 -45.8125 22.9375 C-46.1425 23.9275 -46.4725 24.9175 -46.8125 25.9375 C-47.4725 26.2675 -48.1325 26.5975 -48.8125 26.9375 C-47.8225 27.2675 -46.8325 27.5975 -45.8125 27.9375 C-45.8125 28.5975 -45.8125 29.2575 -45.8125 29.9375 C-46.54339844 30.21078125 -47.27429688 30.4840625 -48.02734375 30.765625 C-50.78560368 31.84754013 -50.78560368 31.84754013 -53.06640625 33.296875 C-59.2445779 37.01841325 -63.33109814 37.20103827 -70.34375 35.74609375 C-72.8125 34.9375 -72.8125 34.9375 -74.8125 32.9375 C-74.64357651 29.72795376 -74.02512139 28.20144379 -72 25.6875 C-69.80013523 23.92760818 -68.50431249 23.49442672 -65.8125 22.9375 C-65.4825 22.2775 -65.1525 21.6175 -64.8125 20.9375 C-61.8125 20.9375 -58.8125 20.9375 -55.8125 20.9375 C-55.420625 20.4425 -55.02875 19.9475 -54.625 19.4375 C-51.87907533 17.16501062 -49.28487063 17.87658122 -45.8125 17.9375 C-43.37923312 17.05882029 -42.14102735 16.31082653 -40.4375 14.375 C-38.07496784 12.2850677 -35.89545679 12.1998793 -32.8125 11.9375 C-32.1525 12.2675 -31.4925 12.5975 -30.8125 12.9375 C-30.461875 12.31875 -30.11125 11.7 -29.75 11.0625 C-27.10652628 8.16320624 -24.57450189 7.9407005 -20.8125 6.9375 C-17.57251911 5.34508386 -14.53433992 3.48312222 -11.65234375 1.3046875 C-7.65587251 -0.61933579 -4.35366369 -0.30558333 0 0 Z M-5.8125 2.9375 C-5.4825 3.5975 -5.1525 4.2575 -4.8125 4.9375 C-3.8225 4.6075 -2.8325 4.2775 -1.8125 3.9375 C-3.1325 3.6075 -4.4525 3.2775 -5.8125 2.9375 Z M1.1875 2.9375 C1.1875 3.5975 1.1875 4.2575 1.1875 4.9375 C2.1775 4.9375 3.1675 4.9375 4.1875 4.9375 C4.1875 4.2775 4.1875 3.6175 4.1875 2.9375 C3.1975 2.9375 2.2075 2.9375 1.1875 2.9375 Z M7.1875 2.9375 C8.1775 3.9275 9.1675 4.9175 10.1875 5.9375 C9.8575 4.9475 9.5275 3.9575 9.1875 2.9375 C8.5275 2.9375 7.8675 2.9375 7.1875 2.9375 Z M-14.8125 5.9375 C-14.4825 6.9275 -14.1525 7.9175 -13.8125 8.9375 C-13.1525 8.9375 -12.4925 8.9375 -11.8125 8.9375 C-11.8125 7.9475 -11.8125 6.9575 -11.8125 5.9375 C-12.8025 5.9375 -13.7925 5.9375 -14.8125 5.9375 Z M4.1875 9.9375 C4.8475 11.2575 5.5075 12.5775 6.1875 13.9375 C6.8475 13.2775 7.5075 12.6175 8.1875 11.9375 C7.8575 11.2775 7.5275 10.6175 7.1875 9.9375 C6.1975 9.9375 5.2075 9.9375 4.1875 9.9375 Z M-11.8125 11.9375 C-11.8125 12.5975 -11.8125 13.2575 -11.8125 13.9375 C-12.4725 13.9375 -13.1325 13.9375 -13.8125 13.9375 C-13.8125 14.5975 -13.8125 15.2575 -13.8125 15.9375 C-12.4925 15.2775 -11.1725 14.6175 -9.8125 13.9375 C-9.8125 13.2775 -9.8125 12.6175 -9.8125 11.9375 C-10.4725 11.9375 -11.1325 11.9375 -11.8125 11.9375 Z M-4.8125 11.9375 C-5.4725 12.5975 -6.1325 13.2575 -6.8125 13.9375 C-6.1525 13.9375 -5.4925 13.9375 -4.8125 13.9375 C-4.4825 14.5975 -4.1525 15.2575 -3.8125 15.9375 C-3.4825 14.6175 -3.1525 13.2975 -2.8125 11.9375 C-3.4725 11.9375 -4.1325 11.9375 -4.8125 11.9375 Z M3.1875 16.9375 C2.5275 17.5975 1.8675 18.2575 1.1875 18.9375 C-0.1325 18.9375 -1.4525 18.9375 -2.8125 18.9375 C-2.8125 19.5975 -2.8125 20.2575 -2.8125 20.9375 C-4.235625 21.2159375 -4.235625 21.2159375 -5.6875 21.5 C-9.13576785 22.65781519 -9.13576785 22.65781519 -10.1875 26.25 C-11.1782181 32.0952368 -10.79334758 35.53978005 -8.56640625 40.97265625 C-7.81107891 42.94120367 -7.28350518 44.88428326 -6.8125 46.9375 C-6.1525 45.2875 -5.4925 43.6375 -4.8125 41.9375 C-1.8125 42.9375 -1.8125 42.9375 -0.625 45 C-0.356875 45.639375 -0.08875 46.27875 0.1875 46.9375 C1.89634005 45.31410195 3.56196717 43.64430947 5.1875 41.9375 C5.1875 41.2775 5.1875 40.6175 5.1875 39.9375 C8.1575 40.2675 11.1275 40.5975 14.1875 40.9375 C13.1975 39.9475 12.2075 38.9575 11.1875 37.9375 C11.5 34.75 11.5 34.75 12.1875 31.9375 C13.1775 31.6075 14.1675 31.2775 15.1875 30.9375 C15.1875 29.9475 15.1875 28.9575 15.1875 27.9375 C14.56875 27.69 13.95 27.4425 13.3125 27.1875 C10.83681313 25.73121361 10.23624998 24.55937494 9.1875 21.9375 C7.8675 21.9375 6.5475 21.9375 5.1875 21.9375 C5.1875 20.2875 5.1875 18.6375 5.1875 16.9375 C4.5275 16.9375 3.8675 16.9375 3.1875 16.9375 Z M17.1875 17.9375 C16.8575 18.9275 16.5275 19.9175 16.1875 20.9375 C16.8475 20.9375 17.5075 20.9375 18.1875 20.9375 C17.8575 19.9475 17.5275 18.9575 17.1875 17.9375 Z M21.1875 18.9375 C20.8575 19.9275 20.5275 20.9175 20.1875 21.9375 C20.8475 21.9375 21.5075 21.9375 22.1875 21.9375 C21.8575 20.9475 21.5275 19.9575 21.1875 18.9375 Z M-14.8125 19.9375 C-14.4825 20.9275 -14.1525 21.9175 -13.8125 22.9375 C-12.1625 22.6075 -10.5125 22.2775 -8.8125 21.9375 C-8.8125 21.2775 -8.8125 20.6175 -8.8125 19.9375 C-10.7925 19.9375 -12.7725 19.9375 -14.8125 19.9375 Z M-19.8125 22.9375 C-20.4725 24.2575 -21.1325 25.5775 -21.8125 26.9375 C-20.4925 26.6075 -19.1725 26.2775 -17.8125 25.9375 C-18.1425 24.9475 -18.4725 23.9575 -18.8125 22.9375 C-19.1425 22.9375 -19.4725 22.9375 -19.8125 22.9375 Z M-11.8125 22.9375 C-11.8125 23.5975 -11.8125 24.2575 -11.8125 24.9375 C-11.1525 24.9375 -10.4925 24.9375 -9.8125 24.9375 C-9.8125 24.2775 -9.8125 23.6175 -9.8125 22.9375 C-10.4725 22.9375 -11.1325 22.9375 -11.8125 22.9375 Z M16.1875 22.9375 C16.5175 23.5975 16.8475 24.2575 17.1875 24.9375 C17.5175 24.2775 17.8475 23.6175 18.1875 22.9375 C17.5275 22.9375 16.8675 22.9375 16.1875 22.9375 Z M17.1875 24.9375 C18.1875 26.9375 18.1875 26.9375 18.1875 26.9375 Z M22.1875 25.9375 C21.8575 26.5975 21.5275 27.2575 21.1875 27.9375 C22.1775 29.4225 22.1775 29.4225 23.1875 30.9375 C23.8475 29.6175 24.5075 28.2975 25.1875 26.9375 C24.1975 26.6075 23.2075 26.2775 22.1875 25.9375 Z M-25.8125 27.9375 C-25.8125 28.9275 -25.8125 29.9175 -25.8125 30.9375 C-24.8225 30.6075 -23.8325 30.2775 -22.8125 29.9375 C-23.1425 29.2775 -23.4725 28.6175 -23.8125 27.9375 C-24.4725 27.9375 -25.1325 27.9375 -25.8125 27.9375 Z M-17.8125 27.9375 C-17.8125 28.5975 -17.8125 29.2575 -17.8125 29.9375 C-16.4925 30.2675 -15.1725 30.5975 -13.8125 30.9375 C-13.4825 30.2775 -13.1525 29.6175 -12.8125 28.9375 C-14.4625 28.6075 -16.1125 28.2775 -17.8125 27.9375 Z M25.1875 29.9375 C25.1875 31.5875 25.1875 33.2375 25.1875 34.9375 C25.8475 33.6175 26.5075 32.2975 27.1875 30.9375 C26.5275 30.6075 25.8675 30.2775 25.1875 29.9375 Z M22.1875 31.9375 C20.75661472 34.79927057 21.58758303 36.87125773 22.1875 39.9375 C23.40440533 38.17220405 23.40440533 38.17220405 24.1875 35.9375 C23.40440533 33.70279595 23.40440533 33.70279595 22.1875 31.9375 Z M-19.8125 32.9375 C-19.8125 33.5975 -19.8125 34.2575 -19.8125 34.9375 C-18.8225 34.9375 -17.8325 34.9375 -16.8125 34.9375 C-16.8125 34.2775 -16.8125 33.6175 -16.8125 32.9375 C-17.8025 32.9375 -18.7925 32.9375 -19.8125 32.9375 Z M14.1875 36.9375 C15.1875 38.9375 15.1875 38.9375 15.1875 38.9375 Z M-21.8125 37.9375 C-21.4825 40.2475 -21.1525 42.5575 -20.8125 44.9375 C-19.8225 44.9375 -18.8325 44.9375 -17.8125 44.9375 C-18.4725 43.6175 -19.1325 42.2975 -19.8125 40.9375 C-19.1525 40.9375 -18.4925 40.9375 -17.8125 40.9375 C-17.8125 40.2775 -17.8125 39.6175 -17.8125 38.9375 C-19.1325 38.6075 -20.4525 38.2775 -21.8125 37.9375 Z M17.1875 40.9375 C17.1875 41.9275 17.1875 42.9175 17.1875 43.9375 C18.5075 43.6075 19.8275 43.2775 21.1875 42.9375 C19.8675 42.2775 18.5475 41.6175 17.1875 40.9375 Z M4.1875 44.9375 C4.1875 46.2575 4.1875 47.5775 4.1875 48.9375 C3.1975 49.2675 2.2075 49.5975 1.1875 49.9375 C0.8575 50.9275 0.5275 51.9175 0.1875 52.9375 C0.5175 53.5975 0.8475 54.2575 1.1875 54.9375 C1.8475 54.9375 2.5075 54.9375 3.1875 54.9375 C3.1875 53.6175 3.1875 52.2975 3.1875 50.9375 C4.1775 50.6075 5.1675 50.2775 6.1875 49.9375 C6.1875 48.9475 6.1875 47.9575 6.1875 46.9375 C7.1775 46.9375 8.1675 46.9375 9.1875 46.9375 C9.1875 47.9275 9.1875 48.9175 9.1875 49.9375 C10.1775 50.2675 11.1675 50.5975 12.1875 50.9375 C12.1875 49.6175 12.1875 48.2975 12.1875 46.9375 C12.8475 46.6075 13.5075 46.2775 14.1875 45.9375 C11.90044169 44.79397084 10.59485238 44.83415561 8.0625 44.875 C6.78375 44.895625 5.505 44.91625 4.1875 44.9375 Z M-8.8125 46.9375 C-9.8025 48.4225 -9.8025 48.4225 -10.8125 49.9375 C-10.1525 50.5975 -9.4925 51.2575 -8.8125 51.9375 C-8.4825 50.2875 -8.1525 48.6375 -7.8125 46.9375 C-8.1425 46.9375 -8.4725 46.9375 -8.8125 46.9375 Z M-2.8125 46.9375 C-2.4825 47.9275 -2.1525 48.9175 -1.8125 49.9375 C-1.4825 48.9475 -1.1525 47.9575 -0.8125 46.9375 C-1.4725 46.9375 -2.1325 46.9375 -2.8125 46.9375 Z M-6.8125 50.9375 C-6.8125 52.5875 -6.8125 54.2375 -6.8125 55.9375 C-5.4925 55.2775 -4.1725 54.6175 -2.8125 53.9375 C-3.1425 52.9475 -3.4725 51.9575 -3.8125 50.9375 C-4.8025 50.9375 -5.7925 50.9375 -6.8125 50.9375 Z M-6.8125 57.9375 C-8.01811184 58.92017859 -8.01811184 58.92017859 -7.91015625 60.78515625 C-7.89855469 61.51605469 -7.88695313 62.24695313 -7.875 63 C-7.854375 64.299375 -7.83375 65.59875 -7.8125 66.9375 C-7.1525 66.6075 -6.4925 66.2775 -5.8125 65.9375 C-5.8125 63.2975 -5.8125 60.6575 -5.8125 57.9375 C-6.1425 57.9375 -6.4725 57.9375 -6.8125 57.9375 Z " fill="#ffffF" transform="translate(83.8125,10.0625)"/>
<path d="M0 0 C1.134375 0.020625 2.26875 0.04125 3.4375 0.0625 C3.4375 2.7025 3.4375 5.3425 3.4375 8.0625 C6.9025 7.5675 6.9025 7.5675 10.4375 7.0625 C10.4375 8.0525 10.4375 9.0425 10.4375 10.0625 C9.633125 10.18625 8.82875 10.31 8 10.4375 C7.154375 10.64375 6.30875 10.85 5.4375 11.0625 C5.1075 11.7225 4.7775 12.3825 4.4375 13.0625 C2.07413834 13.63173339 -0.23316274 14.09436678 -2.625 14.5 C-8.22157514 15.52050909 -13.30267231 16.8966886 -18.5625 19.0625 C-19.2225 19.0625 -19.8825 19.0625 -20.5625 19.0625 C-20.5625 19.7225 -20.5625 20.3825 -20.5625 21.0625 C-25.50305156 21.71044119 -30.39204384 22.17854957 -35.375 22.3125 C-36.26832031 22.33828125 -37.16164063 22.3640625 -38.08203125 22.390625 C-41.09359664 21.9922447 -42.43286962 21.21175831 -44.5625 19.0625 C-44.875 15.4375 -44.875 15.4375 -44.5625 12.0625 C-42.75058118 10.25058118 -39.83898701 10.5901487 -37.375 10.34375 C-35.5457467 10.24251957 -35.5457467 10.24251957 -34.5625 9.0625 C-33.04321962 8.99070036 -31.52082518 8.97857993 -30 9 C-29.17371094 9.00902344 -28.34742187 9.01804687 -27.49609375 9.02734375 C-26.85800781 9.03894531 -26.21992188 9.05054688 -25.5625 9.0625 C-25.5625 9.7225 -25.5625 10.3825 -25.5625 11.0625 C-24.9025 11.0625 -24.2425 11.0625 -23.5625 11.0625 C-23.5625 10.4025 -23.5625 9.7425 -23.5625 9.0625 C-17.2925 9.0625 -11.0225 9.0625 -4.5625 9.0625 C-4.5625 6.4225 -4.5625 3.7825 -4.5625 1.0625 C-3.5625 0.0625 -3.5625 0.0625 0 0 Z M-26.5625 12.0625 C-26.2325 13.3825 -25.9025 14.7025 -25.5625 16.0625 C-24.9025 15.7325 -24.2425 15.4025 -23.5625 15.0625 C-24.5525 14.0725 -25.5425 13.0825 -26.5625 12.0625 Z M-18.5625 12.0625 C-17.5725 12.5575 -17.5725 12.5575 -16.5625 13.0625 C-16.2325 14.0525 -15.9025 15.0425 -15.5625 16.0625 C-15.2325 14.7425 -14.9025 13.4225 -14.5625 12.0625 C-15.8825 12.0625 -17.2025 12.0625 -18.5625 12.0625 Z " fill="#ffffF" transform="translate(53.5625,4.9375)"/>
<path d="M0 0 C1.134375 0.020625 2.26875 0.04125 3.4375 0.0625 C3.7675 2.0425 4.0975 4.0225 4.4375 6.0625 C5.0975 4.0825 5.7575 2.1025 6.4375 0.0625 C6.96859375 0.36929688 7.4996875 0.67609375 8.046875 0.9921875 C10.91890083 2.27802913 13.57980539 2.71458995 16.6875 3.1875 C17.76515625 3.35507812 18.8428125 3.52265625 19.953125 3.6953125 C21.18289062 3.87707031 21.18289062 3.87707031 22.4375 4.0625 C22.9909764 6.13803648 23.4375 7.90615964 23.4375 10.0625 C22.75042969 10.19527344 22.06335938 10.32804688 21.35546875 10.46484375 C20.00388672 10.72974609 20.00388672 10.72974609 18.625 11 C17.73167969 11.17402344 16.83835937 11.34804687 15.91796875 11.52734375 C13.32352829 12.03991153 13.32352829 12.03991153 10.4375 13.0625 C10.4375 12.4025 10.4375 11.7425 10.4375 11.0625 C8.7875 11.0625 7.1375 11.0625 5.4375 11.0625 C5.4375 10.0725 5.4375 9.0825 5.4375 8.0625 C4.15875 8.26875 2.88 8.475 1.5625 8.6875 C-0.6171875 9.0390625 -0.6171875 9.0390625 -2.5625 9.0625 C-4.5625 7.0625 -4.5625 7.0625 -4.75 4 C-4.4768176 -0.27985756 -4.4104386 0.07737612 0 0 Z M13.4375 5.0625 C13.7675 6.0525 14.0975 7.0425 14.4375 8.0625 C14.4375 7.0725 14.4375 6.0825 14.4375 5.0625 C14.1075 5.0625 13.7775 5.0625 13.4375 5.0625 Z " fill="#ffffF" transform="translate(24.5625,-0.0625)"/>
<path d="M0 0 C3.5 0.25 3.5 0.25 5.5 2.25 C5.76991906 4.93839385 5.58737357 7.54141936 5.5 10.25 C3.85 10.25 2.2 10.25 0.5 10.25 C0.5 11.24 0.5 12.23 0.5 13.25 C2.15 13.25 3.8 13.25 5.5 13.25 C5.59765625 19.40234375 5.59765625 19.40234375 5.5 21.25 C4.5 22.25 4.5 22.25 2.46875 22.3828125 C1.6540625 22.38023438 0.839375 22.37765625 0 22.375 C-0.8146875 22.37757812 -1.629375 22.38015625 -2.46875 22.3828125 C-4.5 22.25 -4.5 22.25 -5.5 21.25 C-5.74966567 18.1117655 -5.68521791 14.95950387 -5.6875 11.8125 C-5.69974609 10.92755859 -5.71199219 10.04261719 -5.72460938 9.13085938 C-5.72654297 8.28458984 -5.72847656 7.43832031 -5.73046875 6.56640625 C-5.73457764 5.78724854 -5.73868652 5.00809082 -5.74291992 4.20532227 C-5.26877315 0.38879812 -3.58405481 0.25600392 0 0 Z " fill="#ffffF" transform="translate(64.5,67.75)"/>
<path d="M0 0 C3.47914941 -0.02887814 6.95826831 -0.04675687 10.4375 -0.0625 C11.92733398 -0.07506836 11.92733398 -0.07506836 13.44726562 -0.08789062 C14.39150391 -0.09111328 15.33574219 -0.09433594 16.30859375 -0.09765625 C17.62041626 -0.10551147 17.62041626 -0.10551147 18.95874023 -0.11352539 C21 0 21 0 22 1 C22 3.64 22 6.28 22 9 C15.07 9 8.14 9 1 9 C-0.4783226 6.04335481 -0.06032783 3.25770263 0 0 Z " fill="#ffffF" transform="translate(40,91)"/>
<path d="M0 0 C8 0 8 0 10 1 C10.02685412 3.31243792 10.04632841 5.6249627 10.0625 7.9375 C10.07410156 9.22527344 10.08570313 10.51304688 10.09765625 11.83984375 C10 15 10 15 9 16 C7.33382885 16.04063832 5.66611905 16.042721 4 16 C4 17.98 4 19.96 4 22 C2.68 22 1.36 22 0 22 C0 14.74 0 7.48 0 0 Z M4 5 C4 6.98 4 8.96 4 11 C4.66 11 5.32 11 6 11 C6 9.02 6 7.04 6 5 C5.34 5 4.68 5 4 5 Z " fill="#ffffF" transform="translate(41,68)"/>
<path d="M0 0 C1.175625 0.020625 2.35125 0.04125 3.5625 0.0625 C4.2225 0.0625 4.8825 0.0625 5.5625 0.0625 C8.5625 0.0625 11.5625 0.0625 14.5625 0.0625 C14.8925 1.0525 15.2225 2.0425 15.5625 3.0625 C14.9025 3.0625 14.2425 3.0625 13.5625 3.0625 C13.5625 5.0425 13.5625 7.0225 13.5625 9.0625 C7.6225 9.0625 1.6825 9.0625 -4.4375 9.0625 C-4.4375 0.08068182 -4.4375 0.08068182 0 0 Z " fill="#ffffF" transform="translate(67.4375,90.9375)"/>
<path d="M0 0 C2.4375 1.5625 2.4375 1.5625 4 4 C4.4495791 7.59663278 4.36454848 10.05217395 3.0625 13.4375 C0.13463409 15.65558023 -2.30093951 15.56044045 -5.90234375 15.37890625 C-8 15 -8 15 -10.0625 13.4375 C-11.36454848 10.05217395 -11.4495791 7.59663278 -11 4 C-8.11188513 -0.5054592 -5.11821063 -0.73117295 0 0 Z M-6.75 4.25 C-8.2330753 5.92391615 -8.2330753 5.92391615 -7.8125 8.0625 C-7.06529664 10.18712526 -7.06529664 10.18712526 -5 12 C-2.39719432 11.67958603 -2.39719432 11.67958603 0 11 C0.76956136 8.65466049 0.76956136 8.65466049 1 6 C-0.14646548 4.10338257 -0.14646548 4.10338257 -2 3 C-4.95156348 2.7093809 -4.95156348 2.7093809 -6.75 4.25 Z " fill="#ffffF" transform="translate(88,34)"/>
<path d="M0 0 C1.32 0 2.64 0 4 0 C4 7.26 4 14.52 4 22 C2.68 22 1.36 22 0 22 C0 14.74 0 7.48 0 0 Z " fill="#ffffF" transform="translate(53,68)"/>
<path d="M0 0 C3.63 0.33 7.26 0.66 11 1 C11 1.66 11 2.32 11 3 C7.37 3 3.74 3 0 3 C0 2.01 0 1.02 0 0 Z " fill="#ffffF" transform="translate(58,8)"/>
</svg>
